<svg xmlns="http://www.w3.org/2000/svg" xmlns:xlink="http://www.w3.org/1999/xlink" width="230" height="229" viewBox="0 0 230 229">
  <defs>
    <clipPath id="clip-path">
      <rect id="Rectangle_2" data-name="Rectangle 2" width="230" height="229" transform="translate(10 12)" fill="#fff"/>
    </clipPath>
  </defs>
  <g id="face" transform="translate(-10 -12)">
    <g id="Group_1" data-name="Group 1" clip-path="url(#clip-path)">
      <path id="Path_1" data-name="Path 1" d="M125.25,71.651a56.848,56.848,0,0,0,15.135,3.7c15.422,1.738,32.428-2.7,44.394-11.568l3.3-2.442,1.553,3.8a72.293,72.293,0,0,1,5.424,26.238V154.95l-.074.352c-5.861,25.375-22.57,44.907-45.83,53.6l-2.542.949-1.34-2.367a22.009,22.009,0,0,0-19.411-10.928,25.457,25.457,0,0,0-3.786.288,21.561,21.561,0,0,0-18.326,17.314,6,6,0,0,0-.127,1.013l-.107.768a22.286,22.286,0,0,0,5.5,17.3A22.592,22.592,0,0,0,125.792,241h.107c11.125,0,20.835-8.785,22.144-20.044l.234-2,1.9-.651c26.3-8.987,46.149-30.79,53.094-58.329l.5-1.962,1.989-.394c20.6-4,35.3-22.23,34.173-42.412a41.629,41.629,0,0,0-35.3-38.862l-2.138-.309-.5-2.111c-8.1-34.128-36.736-58.916-71.249-61.677C92.991,9.228,59.138,34.6,48.438,73.954L47.885,76l-2.106.288C25.72,78.987,10,96.941,10,117.155c0,22.72,18.8,41.207,41.905,41.207a4.7,4.7,0,0,0,4.584-4.6V81.62l2.669-.448A59.685,59.685,0,0,0,98.628,56.7l2.213-3.134,2.669,2.74a79.152,79.152,0,0,0,9.009,7.783S119.549,69.349,125.25,71.651ZM47.321,149.108l-4-1.056a31.9,31.9,0,0,1,.011-61.9l3.989-1.034Zm65.964-92.1,5.275.981-.2-.075m-5.669-4.862A54.315,54.315,0,0,1,104.2,42.6a4.363,4.363,0,0,0-2.734-2.036l-.5-.149a3.244,3.244,0,0,0-4.616,1.823l-.309.554a4.29,4.29,0,0,0-.468.938l-.181.437c-6.6,12.975-17.517,22.347-30.727,26.4L58.18,72.547l2.606-6.28C72.879,37.1,98.948,19.868,128.77,21.3a68.73,68.73,0,0,1,52.871,29.351l1.734,2.441-2.319,1.887c-10.008,8.2-24.292,12.325-38.108,11.173A46.986,46.986,0,0,1,112.689,53.058Zm19.953,176.3a13.583,13.583,0,0,1-13.742,0c-4.19-2.494-6.488-7.058-6.3-12.516v-.363l.106-.352a14.887,14.887,0,0,1,4.861-7.761,12.857,12.857,0,0,1,8.211-2.9c6.2,0,11.327,4.19,13.061,10.661l.085.352.021.363C139.14,222.3,136.843,226.863,132.642,229.357ZM208.4,147.6l-4.169,1.354V85.277l4.158,1.333A31.941,31.941,0,0,1,208.4,147.6Z"/>
      <path id="Path_2" data-name="Path 2" d="M118.379,54.657a7.541,7.541,0,0,0-1.308-.128,2.9,2.9,0,0,1,.936-.16A3.591,3.591,0,0,0,118.379,54.657Z" fill="#fff"/>
      <path id="Path_3" data-name="Path 3" d="M162.4,143.617a40.018,40.018,0,0,1-33.237,21.206,43.224,43.224,0,0,1-38.023-17.986,3.208,3.208,0,0,1-.6-3.348,5.48,5.48,0,0,1,4.361-2.814,4.829,4.829,0,0,1,.574-.022,4.625,4.625,0,0,1,3.914,2.069,31.909,31.909,0,0,0,28.153,13.188,32.886,32.886,0,0,0,27.037-17.1,3.667,3.667,0,0,1,3.222-2.186,5.5,5.5,0,0,1,4.606,2.612A4.146,4.146,0,0,1,162.4,143.617Z"/>
      <path id="Path_4" data-name="Path 4" d="M104.7,104.51a3.2,3.2,0,0,0-.213-1.29l-.085-.3c-1.043-4.094-4.244-6.738-8.158-6.738h-.011a8.562,8.562,0,0,0-8.466,8.305,8.739,8.739,0,0,0,2.616,6.248,8.2,8.2,0,0,0,5.977,2.431,8.5,8.5,0,0,0,7.988-6.5l.106-.352a3.132,3.132,0,0,0,.245-1.45v-.352Z"/>
      <path id="Path_5" data-name="Path 5" d="M162.231,104.67v.182a3.166,3.166,0,0,1-.245,1.492l-.127.352a8.394,8.394,0,0,1-8.126,6.461,2.5,2.5,0,0,1-.287-.011,8.483,8.483,0,1,1,8.5-10.213l.085.3a3.273,3.273,0,0,1,.2,1.269Z"/>
    </g>
  </g>
</svg>
