<svg width="250" height="250" viewBox="0 0 250 250" fill="none" xmlns="http://www.w3.org/2000/svg">
<rect width="250" height="250" fill="white"/>
<path d="M134.624 186.529C135.914 197.189 120.634 197.209 121.924 186.529C122.694 180.159 112.694 180.209 111.924 186.529C110.754 196.179 118.594 204.859 128.274 204.909C137.954 204.959 145.784 196.109 144.624 186.529C143.864 180.219 133.854 180.139 134.624 186.529Z" fill="black"/>
<path d="M180.084 98.5791C180.034 98.2491 179.984 97.9091 179.924 97.5791C179.774 96.9291 179.474 96.3591 179.034 95.8791C178.684 95.3391 178.214 94.9091 177.634 94.5891C177.064 94.2191 176.444 94.0291 175.774 93.9991C175.114 93.8491 174.444 93.8791 173.784 94.0891L172.594 94.5891C171.844 95.0291 171.244 95.6291 170.804 96.3791L170.304 97.5691C170.064 98.4591 170.064 99.3391 170.304 100.229C170.364 100.559 170.414 100.899 170.464 101.229C170.614 101.879 170.914 102.449 171.354 102.929C171.704 103.469 172.174 103.899 172.754 104.219C173.324 104.589 173.944 104.779 174.614 104.809C175.274 104.959 175.944 104.929 176.604 104.719L177.794 104.219C178.544 103.779 179.144 103.179 179.584 102.429L180.084 101.239C180.324 100.349 180.324 99.4691 180.084 98.5791Z" fill="black"/>
<path d="M180.774 146.899V127.789C180.774 121.359 170.774 121.339 170.774 127.789V146.899C170.774 153.329 180.774 153.349 180.774 146.899Z" fill="black"/>
<path d="M180.774 106.909C180.284 79.3292 159.304 56.2792 131.634 54.0692C103.964 51.8592 81.834 71.6892 75.914 97.7292L85.554 100.389L85.6039 100.089L75.784 98.7592V98.9092C75.214 105.319 85.2139 105.279 85.7739 98.9092V98.7592C86.2739 93.2092 76.8339 91.8492 75.9639 97.4292L75.914 97.7292C74.954 103.929 84.104 106.789 85.554 100.389C90.414 78.9892 107.234 62.8792 130.094 63.9792C152.954 65.0792 170.364 84.4392 170.764 106.919C170.884 113.349 180.884 113.369 180.764 106.919L180.774 106.909Z" fill="black"/>
<path d="M180.774 148.029V98.9092C180.774 96.2092 178.484 93.9092 175.774 93.9092H175.104C168.674 93.9092 168.654 103.909 175.104 103.909H175.774L170.774 98.9092V148.029C170.774 154.459 180.774 154.479 180.774 148.029Z" fill="black"/>
<path d="M121.744 187.859C123.414 180.199 133.124 180.189 134.804 187.859C136.174 194.139 145.814 191.489 144.444 185.199C140.694 167.999 115.854 167.979 112.104 185.199C110.734 191.469 120.374 194.149 121.744 187.859Z" fill="black"/>
<path d="M175.264 104.909C184.834 104.909 193.034 112.489 193.734 122.049C194.514 132.589 186.174 141.429 175.774 141.899L180.774 146.899V127.789C180.774 121.359 170.774 121.339 170.774 127.789V146.899C170.774 149.509 173.064 152.019 175.774 151.899C191.484 151.189 204.634 138.189 203.734 122.049C202.904 107.079 190.344 94.9092 175.264 94.9092C168.834 94.9092 168.814 104.909 175.264 104.909Z" fill="black"/>
<path d="M75.7739 99.9192V146.899L80.7739 141.899C70.4839 141.899 61.7939 133.909 61.7739 123.409C61.7539 112.909 70.5139 104.709 80.7739 104.919C87.2139 105.049 87.2139 95.0492 80.7739 94.9192C65.0839 94.5992 51.7739 107.749 51.7739 123.409C51.7739 139.069 65.0939 151.899 80.7739 151.899C83.4739 151.899 85.7739 149.609 85.7739 146.899V99.9192C85.7739 93.4892 75.7739 93.4692 75.7739 99.9192Z" fill="black"/>
<path d="M104.344 143.649C116.694 160.759 143.254 160.429 153.634 141.359C156.714 135.709 148.084 130.649 145.004 136.309C138.494 148.259 121.184 149.949 112.984 138.599C109.254 133.429 100.574 138.419 104.354 143.649H104.344Z" fill="black"/>
<path d="M106.774 115.409C106.774 115.269 107.024 114.219 106.824 114.869C106.974 114.369 107.234 113.929 107.594 113.549C107.134 114.029 107.894 113.319 108.014 113.249C108.164 113.159 109.134 112.909 108.484 113.029C109.464 112.849 110.414 112.949 111.134 113.719C111.274 113.879 111.684 114.629 111.384 114.039C111.684 114.619 111.814 115.149 111.714 115.799C111.574 116.739 112.004 115.479 111.574 116.299C111.514 116.559 111.384 116.779 111.194 116.959C110.914 117.279 110.864 117.349 111.044 117.169C111.224 116.989 111.154 117.039 110.834 117.319C110.654 117.509 110.434 117.639 110.174 117.699C109.344 118.129 110.614 117.699 109.674 117.839C109.114 117.929 108.714 117.819 108.194 117.629C107.454 117.369 108.384 117.919 107.804 117.389C107.584 117.269 107.414 117.099 107.294 116.879C107.064 116.539 107.004 116.479 107.144 116.709C107.264 116.939 107.234 116.869 107.054 116.489C106.854 116.159 106.764 115.789 106.784 115.399C106.934 118.009 108.974 120.529 111.784 120.399C114.364 120.279 116.944 118.199 116.784 115.399C116.554 111.349 113.524 107.889 109.284 107.899C105.294 107.899 101.824 111.239 101.794 115.259C101.764 119.279 105.214 122.989 109.424 122.889C113.634 122.789 116.574 119.429 116.784 115.399C116.924 112.779 114.384 110.279 111.784 110.399C108.954 110.529 106.934 112.599 106.784 115.399L106.774 115.409Z" fill="black"/>
<path d="M143.774 115.409C143.774 115.259 143.994 114.239 143.814 114.909C144.004 114.209 144.314 113.879 144.814 113.419C145.384 112.889 144.454 113.449 145.194 113.179C145.714 112.989 146.114 112.889 146.674 112.969C147.154 113.059 147.204 113.059 146.814 112.969L147.534 113.259C147.654 113.329 148.404 114.039 147.954 113.559C148.324 113.939 148.564 114.379 148.724 114.879C148.494 114.139 148.754 115.539 148.714 115.819C148.574 116.759 149.004 115.509 148.574 116.329C148.514 116.589 148.384 116.809 148.184 116.989C147.904 117.319 147.854 117.389 148.034 117.199C148.214 117.019 148.144 117.069 147.814 117.349C147.524 117.619 147.184 117.799 146.774 117.869C147.414 117.689 146.404 117.909 146.274 117.909C146.144 117.909 145.084 117.659 145.734 117.859C145.224 117.709 144.794 117.449 144.414 117.089C144.674 117.369 144.654 117.329 144.354 116.969C144.164 116.789 144.034 116.569 143.974 116.309C143.824 115.899 143.794 115.829 143.864 116.079C143.964 116.469 143.934 116.239 143.774 115.409C143.914 118.019 145.974 120.539 148.774 120.409C151.364 120.289 153.924 118.209 153.774 115.409C153.554 111.339 150.504 107.919 146.274 107.909C142.264 107.909 138.834 111.269 138.784 115.279C138.734 119.289 141.964 122.769 146.004 122.899C150.344 123.039 153.534 119.589 153.774 115.409C153.924 112.789 151.364 110.289 148.774 110.409C145.934 110.539 143.934 112.609 143.774 115.409Z" fill="black"/>
<path d="M171.174 145.559C167.794 163.069 155.714 177.109 138.294 181.709C132.074 183.349 134.714 192.999 140.954 191.349C161.514 185.929 176.804 169.009 180.814 148.219C182.024 141.929 172.394 139.239 171.174 145.559Z" fill="black"/>
<path d="M122.674 83.2392H122.664C121.974 83.2092 121.334 83.3592 120.734 83.6692C120.114 83.8692 119.574 84.2192 119.124 84.6992C118.634 85.1492 118.294 85.6892 118.094 86.3092C117.784 86.9092 117.634 87.5492 117.664 88.2392L117.844 89.5692C118.084 90.4192 118.514 91.1492 119.134 91.7792L120.144 92.5592C120.924 93.0092 121.764 93.2392 122.664 93.2392H122.674C123.364 93.2692 124.004 93.1192 124.604 92.8092C125.224 92.6092 125.764 92.2592 126.214 91.7792C126.704 91.3292 127.044 90.7892 127.244 90.1692C127.554 89.5692 127.704 88.9292 127.674 88.2392L127.494 86.9092C127.254 86.0592 126.824 85.3292 126.204 84.6992L125.194 83.9192C124.414 83.4692 123.574 83.2392 122.674 83.2392Z" fill="black"/>
<path d="M165.234 79.3692C158.954 86.3392 148.384 89.5692 139.154 88.7992C133.684 88.3392 129.384 86.0592 124.594 83.6692C124.204 83.4392 123.784 83.3292 123.334 83.3292C122.464 83.2792 122.444 83.2192 123.274 83.1392C124.404 84.1092 121.684 81.2092 121.254 80.8092C119.254 78.9192 117.594 76.8092 116.124 74.4892C112.674 69.0792 104.024 74.0892 107.494 79.5392C111.244 85.4292 115.754 89.1392 121.334 93.0692C122.844 93.1392 123.104 93.2292 122.104 93.3392C121.024 93.3992 121.314 93.6992 122.984 94.2292C124.184 95.0192 125.834 95.5992 127.174 96.1292C130.494 97.4592 133.904 98.2392 137.444 98.6392C149.674 100.009 163.944 95.7292 172.314 86.4492C176.614 81.6792 169.564 74.5892 165.244 79.3792L165.234 79.3692Z" fill="black"/>
<path d="M80.6139 102.899C95.9539 102.219 109.614 93.5692 116.134 79.5292C118.824 73.7292 110.214 68.6492 107.504 74.4792C102.474 85.3092 92.6639 92.3592 80.6239 92.8892C74.2139 93.1792 74.1839 103.179 80.6239 102.889L80.6139 102.899Z" fill="black"/>
<path d="M236.774 124.409C236.504 170.459 207.544 213.059 164.044 229.009C120.544 244.959 69.5339 231.619 39.3839 195.549C9.44386 159.739 5.6439 107.159 29.5539 67.1992C53.5139 27.1692 101.444 5.76916 147.254 15.0692C192.384 24.2392 227.774 61.0592 235.354 106.439C236.344 112.379 236.734 118.399 236.764 124.409C236.804 130.839 246.804 130.859 246.764 124.409C246.464 73.8892 214.704 28.0892 167.314 10.3992C119.764 -7.34084 64.1839 7.61916 31.8839 46.6992C-0.706144 86.1292 -5.35615 143.339 21.2539 187.229C47.6239 230.729 99.4038 253.339 149.244 243.519C198.194 233.879 237.564 192.999 245.214 143.679C246.204 137.289 246.734 130.859 246.764 124.399C246.794 117.939 236.804 117.959 236.764 124.399L236.774 124.409Z" fill="black"/>
</svg>
