<svg xmlns="http://www.w3.org/2000/svg" xmlns:xlink="http://www.w3.org/1999/xlink" width="250" height="250" viewBox="0 0 250 250">
  <defs>
    <clipPath id="clip-path">
      <rect id="Rectangle_4" data-name="Rectangle 4" width="147.228" height="143.538" transform="translate(7 10)" fill="#fff"/>
    </clipPath>
  </defs>
  <g id="Group_3" data-name="Group 3" transform="translate(-697 -574)">
    <g id="c2" transform="translate(697 574)">
      <rect id="Rectangle_1" data-name="Rectangle 1" width="250" height="250" fill="#fff"/>
      <path id="Path_16" data-name="Path 16" d="M236.774,124.409c-.27,46.05-29.23,88.65-72.73,104.6s-94.51,2.61-124.66-33.46c-29.94-35.81-33.74-88.39-9.83-128.35,23.96-40.03,71.89-61.43,117.7-52.13,45.13,9.17,80.52,45.99,88.1,91.37a112.7,112.7,0,0,1,1.41,17.97c.04,6.43,10.04,6.45,10,0-.3-50.52-32.06-96.32-79.45-114.01-47.55-17.74-103.13-2.78-135.43,36.3-32.59,39.43-37.24,96.64-10.63,140.53,26.37,43.5,78.15,66.11,127.99,56.29,48.95-9.64,88.32-50.52,95.97-99.84a129.746,129.746,0,0,0,1.55-19.28c.03-6.46-9.96-6.44-10,0Z"/>
    </g>
    <g id="Group_2" data-name="Group 2" transform="translate(741.386 623.462)" clip-path="url(#clip-path)">
      <path id="Path_23" data-name="Path 23" d="M76.391,120.264h74.7a3.179,3.179,0,0,0,3.133-3.133v-104A3.179,3.179,0,0,0,151.1,10H10.133A3.179,3.179,0,0,0,7,13.133v104a3.179,3.179,0,0,0,3.133,3.133H41.257c4.028,0,4.041-6.265,0-6.265H10.133l3.133,3.133v-104l-3.133,3.133H151.1l-3.133-3.133v104L151.1,114h-74.7C72.363,114,72.351,120.264,76.391,120.264Z" transform="translate(0 0)"/>
      <path id="Path_24" data-name="Path 24" d="M92.729,176.939l-35.134,33.33,5.35,2.218v-33.33c0-4.028-6.265-4.041-6.265,0v33.33a3.17,3.17,0,0,0,5.35,2.218l35.134-33.33c2.932-2.782-1.5-7.2-4.429-4.429Z" transform="translate(-18.555 -62.024)"/>
      <path id="Path_25" data-name="Path 25" d="M59.876,65.585h81.4c4.028,0,4.041-6.265,0-6.265h-81.4C55.848,59.32,55.835,65.585,59.876,65.585Z" transform="translate(-18.619 -18.421)"/>
      <path id="Path_26" data-name="Path 26" d="M59.876,95.585h81.4c4.028,0,4.041-6.265,0-6.265h-81.4C55.848,89.32,55.835,95.585,59.876,95.585Z" transform="translate(-18.619 -29.626)"/>
      <path id="Path_27" data-name="Path 27" d="M59.876,125.585h45.309c4.028,0,4.041-6.265,0-6.265H59.876C55.848,119.32,55.835,125.585,59.876,125.585Z" transform="translate(-18.619 -40.831)"/>
    </g>
  </g>
</svg>
