<svg xmlns="http://www.w3.org/2000/svg" width="24.993" height="24.787" viewBox="0 0 24.993 24.787">
  <g id="Frame_3" data-name="Frame 3" transform="translate(-10 -11)">
    <path id="Path_39" data-name="Path 39" d="M28.507,39.069h-.024a12.812,12.812,0,0,1-5.769-1.853,29.739,29.739,0,0,1-8.439-7.3,18.3,18.3,0,0,1-4.069-7.654,7.027,7.027,0,0,1,.083-3.7,6.189,6.189,0,0,1,1.1-2.079,4.56,4.56,0,0,1,1.868-1.47,3.369,3.369,0,0,1,2.395-.174,6.657,6.657,0,0,1,1.854,1.929l1.837,2.465c.831,1.307.951,1.813.889,2.3a3.927,3.927,0,0,1-.907,1.692c-.319.442-.56.72-.736.926-.237.274-.269.321-.286.416-.045.253.136.559.844,1.419a29.353,29.353,0,0,0,4.332,4.19c.376.316.688.558.975.52.109-.013.17-.054.542-.369.173-.146.391-.331.683-.562l.117-.092a3.2,3.2,0,0,1,1.586-.877,3.361,3.361,0,0,1,2,.627l1.827,1.2,1.5,1.144c.905.8,1.451,1.291,1.6,2.082a3.609,3.609,0,0,1-.835,2.689,5.838,5.838,0,0,1-4.945,2.53h-.024ZM14.755,15.787a2.956,2.956,0,0,0-1.079.252,3.961,3.961,0,0,0-1.425,1.145,5.156,5.156,0,0,0-.994,2.034,6,6,0,0,0,.032,2.8,17.258,17.258,0,0,0,3.847,7.2,28.678,28.678,0,0,0,8.125,7.04,11.615,11.615,0,0,0,5.254,1.708,4.73,4.73,0,0,0,4.048-2.049,2.639,2.639,0,0,0,.66-1.856c-.076-.4-.416-.718-1.248-1.458l-1.4-1.068-1.751-1.153c-.735-.384-1.02-.511-1.306-.48-.237.028-.472.207-1.028.645l-.118.093c-.279.22-.487.4-.652.537a2.02,2.02,0,0,1-1.127.626,2.436,2.436,0,0,1-1.822-.773A30.312,30.312,0,0,1,18.3,26.688c-.76-.925-1.218-1.53-1.079-2.319a1.854,1.854,0,0,1,.537-.946c.164-.188.384-.445.678-.851a3.53,3.53,0,0,0,.705-1.182c.014-.115.045-.356-.7-1.534l-1.818-2.437a8.136,8.136,0,0,0-1.355-1.55A1.452,1.452,0,0,0,14.755,15.787Z" transform="translate(0 -3.282)"/>
    <path id="Path_40" data-name="Path 40" d="M133.835,54.077a5.944,5.944,0,0,1,4,.979A5.214,5.214,0,0,1,139.5,59.51c-.064.694,1.019.689,1.083,0a6.272,6.272,0,0,0-1.985-5.221,6.866,6.866,0,0,0-4.766-1.3c-.69.056-.7,1.139,0,1.083Z" transform="translate(-109.959 -37.424)"/>
    <path id="Path_41" data-name="Path 41" d="M122.607,12.117a13.586,13.586,0,0,1,5.6.743,7.589,7.589,0,0,1,3.764,2.828,10.885,10.885,0,0,1,1.734,4.6,10.9,10.9,0,0,1,.107,2.595c-.066.693,1.017.689,1.083,0a12.341,12.341,0,0,0-1.675-7.252c-1.766-2.932-4.849-4.212-8.139-4.538a13.676,13.676,0,0,0-2.474-.054C121.917,11.092,121.912,12.175,122.607,12.117Z" transform="translate(-99.948)"/>
    <path id="Path_42" data-name="Path 42" d="M38.774,23.312l4.756,6.535c.406.558,1.346.018.935-.547l-4.756-6.535C39.3,22.208,38.362,22.747,38.774,23.312Z" transform="translate(-25.567 -10.282)"/>
    <path id="Path_43" data-name="Path 43" d="M155.358,157.445l6.176,5.213c.53.447,1.3-.315.766-.766l-6.176-5.213C155.594,156.232,154.824,156.994,155.358,157.445Z" transform="translate(-129.455 -129.781)"/>
  </g>
</svg>
