<svg xmlns="http://www.w3.org/2000/svg" width="13.336" height="25.304" viewBox="0 0 13.336 25.304">
  <g id="fb" transform="translate(-66 -16)">
    <path id="Path_29" data-name="Path 29" d="M75.594,21.865h3.1a.657.657,0,0,0,.647-.647V16.647A.657.657,0,0,0,78.689,16H75.05a.657.657,0,0,0-.647.647v.016l.647-.647a6.364,6.364,0,0,0-4.777,1.891A6.454,6.454,0,0,0,69.011,21.9l.647-.647h-.009A.657.657,0,0,0,69,21.9v2.283l.647-.647h-3a.657.657,0,0,0-.647.647v4.476a.657.657,0,0,0,.647.647h3L69,28.658v12a.657.657,0,0,0,.647.647h4.524a.657.657,0,0,0,.647-.647v-12l-.647.647h3.708a.653.653,0,0,0,.624-.475q.357-2.238.716-4.476a.658.658,0,0,0-.624-.819H74.176l.647.647c0-.7-.273-2.257.772-2.316.829-.047.834-1.341,0-1.294a2.114,2.114,0,0,0-2.023,1.8,10.8,10.8,0,0,0-.043,1.808.657.657,0,0,0,.647.647H78.6l-.624-.819q-.357,2.238-.716,4.476l.624-.475H74.173a.657.657,0,0,0-.647.647v12l.647-.647H69.649l.647.647v-12a.657.657,0,0,0-.647-.647h-3l.647.647V24.182l-.647.647h3a.657.657,0,0,0,.647-.647V21.9l-.647.647h.009a.659.659,0,0,0,.647-.647,5.234,5.234,0,0,1,.883-3.077A5,5,0,0,1,75.05,17.31a.658.658,0,0,0,.647-.647v-.016l-.647.647h3.639l-.647-.647v4.571l.647-.647h-3.1A.647.647,0,0,0,75.594,21.865Z"/>
  </g>
</svg>
