<svg xmlns="http://www.w3.org/2000/svg" width="25.109" height="20.793" viewBox="0 0 25.109 20.793">
  <g id="Frame_4" data-name="Frame 4" transform="translate(-5 -26)">
    <path id="Path_44" data-name="Path 44" d="M28.805,102.071v11.843a.532.532,0,0,0,.524.524H48.4a.532.532,0,0,0,.524-.524v-11.42a.524.524,0,0,0-1.048,0v11.42l.524-.524H29.329l.524.524V102.071A.524.524,0,0,0,28.805,102.071Z" transform="translate(-21.31 -67.645)"/>
    <path id="Path_45" data-name="Path 45" d="M93.021,141.884H85.789l.524.524v-8.489l-.524.524h7.232l-.524-.524v8.489a.524.524,0,0,0,1.048,0v-8.489a.532.532,0,0,0-.524-.524H85.789a.532.532,0,0,0-.524.524v8.489a.532.532,0,0,0,.524.524h7.232A.524.524,0,0,0,93.021,141.884Z" transform="translate(-71.853 -96.139)"/>
    <path id="Path_46" data-name="Path 46" d="M5.909,36.892l10.613-8.765,1.5-1.24h-.741l10.441,8.777L29.2,36.9c.491.412,1.259-.306.741-.741L19.5,27.384l-1.473-1.238a.543.543,0,0,0-.741,0L6.669,34.911l-1.5,1.24C4.668,36.564,5.393,37.319,5.909,36.892Z"/>
  </g>
</svg>
