<svg xmlns="http://www.w3.org/2000/svg" width="25.204" height="25.226" viewBox="0 0 25.204 25.226">
  <g id="Frame_5" data-name="Frame 5" transform="translate(-9 -9)">
    <path id="Path_35" data-name="Path 35" d="M31.5,33.109H13.16c-.938,0-2.153.2-2.775-.676-.483-.679-.292-1.89-.292-2.674V12.13a2.768,2.768,0,0,1,.1-.992c.461-1.226,1.78-1.04,2.821-1.04H29.09c.8,0,1.606-.028,2.406,0A1.632,1.632,0,0,1,33.1,11.742c.008.3,0,.6,0,.9V23.014c0,2.8.031,5.612,0,8.417a1.633,1.633,0,0,1-1.6,1.678c-.7.024-.7,1.115,0,1.091a2.733,2.733,0,0,0,2.688-2.617c.011-.231,0-.465,0-.7V14.651c0-.971.023-1.944,0-2.915a2.74,2.74,0,0,0-1.646-2.514,3.5,3.5,0,0,0-1.41-.216H21.163c-3.1,0-6.205-.015-9.308,0A2.77,2.77,0,0,0,9,11.871C9,13.006,9,14.14,9,15.275V31.158a3.414,3.414,0,0,0,.243,1.459,2.74,2.74,0,0,0,2.492,1.58c2.9.063,5.816,0,8.72,0H31.5a.546.546,0,0,0,0-1.091Z"/>
    <path id="Path_36" data-name="Path 36" d="M68.659,61.379a6.216,6.216,0,1,1-5.017-6.1,6.278,6.278,0,0,1,5.017,6.1.546.546,0,0,0,1.091,0A7.4,7.4,0,0,0,64.918,54.5a7.306,7.306,0,1,0,4.833,6.876.546.546,0,0,0-1.091,0Z" transform="translate(-41.119 -40.157)"/>
    <path id="Path_37" data-name="Path 37" d="M90.627,85.364A3.258,3.258,0,0,1,88.5,88.394a3.219,3.219,0,1,1-.49-6.193,3.26,3.26,0,0,1,2.622,3.164.546.546,0,0,0,1.091,0,4.375,4.375,0,0,0-2.865-4.058,4.3,4.3,0,0,0-4.77,1.328,4.306,4.306,0,1,0,7.635,2.731.546.546,0,0,0-1.091,0Z" transform="translate(-66.031 -64.196)"/>
    <path id="Path_38" data-name="Path 38" d="M172.756,31.49a.327.327,0,0,1-.654,0,.327.327,0,0,1,.654,0c.037.7,1.129.7,1.091,0a1.444,1.444,0,0,0-1.418-1.418,1.417,1.417,0,0,0-.048,2.833,1.439,1.439,0,0,0,1.466-1.416C173.885,30.789,172.795,30.791,172.756,31.49Z" transform="translate(-144.343 -18.774)"/>
  </g>
</svg>
