<svg xmlns="http://www.w3.org/2000/svg" xmlns:xlink="http://www.w3.org/1999/xlink" width="25.743" height="25.098" viewBox="0 0 25.743 25.098">
  <defs>
    <clipPath id="clip-path">
      <rect id="Rectangle_2" data-name="Rectangle 2" width="25.743" height="25.098" transform="translate(0 0)" fill="#fff"/>
    </clipPath>
  </defs>
  <g id="Frame_8" data-name="Frame 8" transform="translate(-7 -10)">
    <g id="Group_1" data-name="Group 1" transform="translate(7 10)" clip-path="url(#clip-path)">
      <path id="Path_1" data-name="Path 1" d="M19.133,29.28H32.2a.556.556,0,0,0,.548-.548V10.548A.556.556,0,0,0,32.2,10H7.548A.556.556,0,0,0,7,10.548V28.732a.556.556,0,0,0,.548.548H12.99a.548.548,0,0,0,0-1.1H7.548l.548.548V10.548l-.548.548H32.2l-.548-.548V28.732l.548-.548H19.133A.548.548,0,0,0,19.133,29.28Z" transform="translate(-7 -10)"/>
      <path id="Path_2" data-name="Path 2" d="M62.983,176.217l-6.143,5.828.936.388V176.6a.548.548,0,0,0-1.1,0v5.828a.554.554,0,0,0,.936.388l6.143-5.828c.513-.486-.263-1.26-.774-.774Z" transform="translate(-51.238 -157.872)"/>
      <path id="Path_3" data-name="Path 3" d="M57.379,60.415H71.613a.548.548,0,0,0,0-1.1H57.379A.548.548,0,0,0,57.379,60.415Z" transform="translate(-51.389 -53.917)"/>
      <path id="Path_4" data-name="Path 4" d="M57.379,90.415H71.613a.548.548,0,0,0,0-1.1H57.379A.548.548,0,0,0,57.379,90.415Z" transform="translate(-51.389 -80.631)"/>
      <path id="Path_5" data-name="Path 5" d="M57.379,120.415H65.3a.548.548,0,0,0,0-1.1H57.379A.548.548,0,0,0,57.379,120.415Z" transform="translate(-51.389 -107.344)"/>
    </g>
  </g>
</svg>
