<svg xmlns="http://www.w3.org/2000/svg" xmlns:xlink="http://www.w3.org/1999/xlink" width="235" height="229.11" viewBox="0 0 235 229.11">
  <defs>
    <clipPath id="clip-path">
      <rect id="Rectangle_4" data-name="Rectangle 4" width="235" height="229.11" transform="translate(7 10)" fill="#fff"/>
    </clipPath>
  </defs>
  <g id="Frame_8_3_" data-name="Frame 8 (3)" transform="translate(-7 -10)">
    <g id="Group_2" data-name="Group 2" clip-path="url(#clip-path)">
      <path id="Path_6" data-name="Path 6" d="M117.76,186H237a5.074,5.074,0,0,0,5-5V15a5.074,5.074,0,0,0-5-5H12a5.074,5.074,0,0,0-5,5V181a5.074,5.074,0,0,0,5,5H61.68c6.43,0,6.45-10,0-10H12l5,5V15l-5,5H237l-5-5V181l5-5H117.76C111.33,176,111.31,186,117.76,186Z"/>
      <path id="Path_7" data-name="Path 7" d="M114.22,177.46l-56.08,53.2,8.54,3.54V181c0-6.43-10-6.45-10,0v53.2c0,4.42,5.42,6.49,8.54,3.54l56.08-53.2c4.68-4.44-2.4-11.5-7.07-7.07Z"/>
      <path id="Path_8" data-name="Path 8" d="M61.68,69.32H191.61c6.43,0,6.45-10,0-10H61.68C55.25,59.32,55.23,69.32,61.68,69.32Z"/>
      <path id="Path_9" data-name="Path 9" d="M61.68,99.32H191.61c6.43,0,6.45-10,0-10H61.68C55.25,89.32,55.23,99.32,61.68,99.32Z"/>
      <path id="Path_10" data-name="Path 10" d="M61.68,129.32H134c6.43,0,6.45-10,0-10H61.68C55.25,119.32,55.23,129.32,61.68,129.32Z"/>
    </g>
  </g>
</svg>
