<svg xmlns="http://www.w3.org/2000/svg" width="40.022" height="40.022" viewBox="0 0 40.022 40.022">
  <g id="world" transform="translate(24 315)">
    <path id="Path_28" data-name="Path 28" d="M24.011,4A20.011,20.011,0,1,0,44.022,24.011,20.012,20.012,0,0,0,24.011,4Zm-.91,8.113c-1.911-.03-3.822-.146-5.732-.359,1.478-3.19,3.5-5.369,5.732-5.838v6.2Zm0,1.82V23.1H14.939a30.941,30.941,0,0,1,1.708-9.589,61.19,61.19,0,0,0,6.455.419Zm0,10.988v9.132a60.088,60.088,0,0,0-6.465.429,30.994,30.994,0,0,1-1.7-9.56Zm0,10.952v6.235c-2.242-.47-4.266-2.661-5.743-5.866C19.271,36.022,21.187,35.9,23.1,35.873Zm1.818,0c1.916.03,3.83.149,5.743.369-1.478,3.205-3.5,5.4-5.743,5.866Zm0-1.82V24.921h8.162a30.994,30.994,0,0,1-1.7,9.56A60.088,60.088,0,0,0,24.919,34.053Zm0-10.952V13.933a61.19,61.19,0,0,0,6.455-.419A30.941,30.941,0,0,1,33.082,23.1H24.919Zm0-10.99v-6.2c2.235.468,4.254,2.649,5.732,5.838C28.742,11.967,26.832,12.083,24.919,12.111Zm4.494-5.474a18.178,18.178,0,0,1,7.059,4.156q-1.973.419-3.951.707a16.733,16.733,0,0,0-3.109-4.861ZM15.5,11.5q-1.978-.285-3.951-.707a18.2,18.2,0,0,1,7.059-4.156A16.812,16.812,0,0,0,15.5,11.5Zm-.677,1.737a32.522,32.522,0,0,0-1.7,9.865H5.866a18.086,18.086,0,0,1,4.211-10.762c1.58.364,3.162.659,4.747.9Zm-1.7,11.683a32.614,32.614,0,0,0,1.694,9.843c-1.583.245-3.164.544-4.742.917a18.092,18.092,0,0,1-4.208-10.76ZM15.491,36.5a16.8,16.8,0,0,0,3.117,4.884,18.191,18.191,0,0,1-7.067-4.163Q13.515,36.793,15.491,36.5Zm17.041,0q1.978.293,3.95.721a18.191,18.191,0,0,1-7.067,4.163A16.768,16.768,0,0,0,32.532,36.5Zm.675-1.736A32.614,32.614,0,0,0,34.9,24.919h7.256a18.107,18.107,0,0,1-4.208,10.76C36.371,35.307,34.791,35.008,33.207,34.763ZM34.9,23.1a32.633,32.633,0,0,0-1.7-9.865c1.585-.24,3.167-.534,4.747-.9A18.1,18.1,0,0,1,42.159,23.1H34.9Z" transform="translate(-28 -319)"/>
  </g>
</svg>
